<?xml version="1.0" encoding="utf-8"?>
<!-- Generator: Adobe Illustrator 16.0.3, SVG Export Plug-In . SVG Version: 6.00 Build 0)  -->
<!DOCTYPE svg PUBLIC "-//W3C//DTD SVG 1.1//EN" "http://www.w3.org/Graphics/SVG/1.1/DTD/svg11.dtd">
<svg version="1.1" id="Layer_1" xmlns="http://www.w3.org/2000/svg" xmlns:xlink="http://www.w3.org/1999/xlink" x="0px" y="0px"
	 width="512px" height="582px" viewBox="0 -36.5 512 582" enable-background="new 0 -36.5 512 582" xml:space="preserve">
<g>
	<g>
		<path fill="#FFFFFF" d="M204.693,0H33.67C15.105,0,0,15.105,0,33.67v171.023c0,18.566,15.105,33.67,33.67,33.67h171.023
			c18.566,0,33.67-15.105,33.67-33.67V33.67C238.363,15.105,223.259,0,204.693,0z M222.33,204.693
			c0,9.725-7.912,17.637-17.637,17.637H33.67c-9.725,0-17.637-7.912-17.637-17.637V33.67c0-9.725,7.912-17.637,17.637-17.637
			h171.023c9.725,0,17.637,7.912,17.637,17.637V204.693L222.33,204.693z"/>
	</g>
</g>
<g>
	<g>
		<path fill="#FFFFFF" d="M478.33,0H307.307c-18.565,0-33.67,15.105-33.67,33.67v171.023c0,18.566,15.104,33.67,33.67,33.67H478.33
			c18.566,0,33.67-15.105,33.67-33.67V33.67C512,15.105,496.895,0,478.33,0z M495.967,204.693c0,9.725-7.912,17.637-17.637,17.637
			H307.307c-9.725,0-17.637-7.912-17.637-17.637V33.67c0-9.725,7.912-17.637,17.637-17.637H478.33
			c9.725,0,17.637,7.912,17.637,17.637V204.693z"/>
	</g>
</g>
<g>
	<g>
		<path fill="#FFFFFF" d="M204.693,273.637H33.67c-18.566,0-33.67,15.105-33.67,33.67V478.33C0,496.895,15.105,512,33.67,512
			h171.023c18.566,0,33.67-15.105,33.67-33.67V307.307C238.363,288.741,223.259,273.637,204.693,273.637z M222.33,478.33
			c0,9.725-7.912,17.637-17.637,17.637H33.67c-9.725,0-17.637-7.912-17.637-17.637V307.307c0-9.725,7.912-17.637,17.637-17.637
			h171.023c9.725,0,17.637,7.912,17.637,17.637V478.33L222.33,478.33z"/>
	</g>
</g>
<g>
	<g>
		<path fill="#FFFFFF" d="M478.33,273.637H307.307c-18.565,0-33.67,15.105-33.67,33.67V478.33c0,18.566,15.104,33.67,33.67,33.67
			H478.33c18.566,0,33.67-15.105,33.67-33.67V307.307C512,288.741,496.895,273.637,478.33,273.637z M495.967,478.33
			c0,9.725-7.912,17.637-17.637,17.637H307.307c-9.725,0-17.637-7.912-17.637-17.637V307.307c0-9.725,7.912-17.637,17.637-17.637
			H478.33c9.725,0,17.637,7.912,17.637,17.637V478.33z"/>
	</g>
</g>
<g>
	<g>
		<path fill="#FFFFFF" d="M170.489,111.165h-43.29v-43.29c0-4.427-3.589-8.017-8.017-8.017c-4.428,0-8.017,3.589-8.017,8.017v43.29
			h-43.29c-4.427,0-8.017,3.589-8.017,8.017c0,4.428,3.589,8.017,8.017,8.017h43.29v43.29c0,4.427,3.589,8.017,8.017,8.017
			c4.428,0,8.017-3.589,8.017-8.017v-43.29h43.29c4.427,0,8.017-3.589,8.017-8.017C178.506,114.754,174.916,111.165,170.489,111.165
			z"/>
	</g>
</g>
<g>
	<g>
		<path fill="#FFFFFF" d="M444.125,111.165H341.511c-4.427,0-8.017,3.589-8.017,8.017c0,4.428,3.589,8.017,8.017,8.017h102.614
			c4.427,0,8.017-3.589,8.017-8.017C452.142,114.754,448.553,111.165,444.125,111.165z"/>
	</g>
</g>
<g>
	<g>
		<path fill="#FFFFFF" d="M444.125,384.802H341.511c-4.427,0-8.017,3.589-8.017,8.017s3.589,8.018,8.017,8.018h102.614
			c4.427,0,8.017-3.589,8.017-8.018C452.142,388.391,448.553,384.802,444.125,384.802z"/>
	</g>
</g>
<g>
	<g>
		<path fill="#FFFFFF" d="M130.518,392.818l37.087-37.088c3.131-3.129,3.131-8.207,0-11.336c-3.131-3.132-8.207-3.132-11.337,0
			l-37.087,37.086l-37.087-37.086c-3.131-3.132-8.207-3.132-11.337,0c-3.131,3.131-3.131,8.207,0,11.336l37.087,37.088
			l-37.087,37.087c-3.131,3.131-3.131,8.207,0,11.337c1.565,1.565,3.617,2.348,5.668,2.348c2.051,0,4.103-0.782,5.668-2.348
			l37.087-37.087l37.087,37.087c1.565,1.564,3.617,2.348,5.668,2.348c2.051,0,4.103-0.782,5.668-2.348
			c3.131-3.131,3.131-8.207,0-11.337L130.518,392.818z"/>
	</g>
</g>
<g>
	<g>
		<path fill="#FFFFFF" d="M392.861,333.495c-4.428,0-8.06,3.632-8.06,8.059s3.632,8.061,8.06,8.061c4.427,0,8.059-3.632,8.059-8.061
			C400.921,337.127,397.289,333.495,392.861,333.495z"/>
	</g>
</g>
<g>
	<g>
		<path fill="#FFFFFF" d="M392.861,436.023c-4.428,0-8.06,3.632-8.06,8.059s3.632,8.06,8.06,8.06c4.427,0,8.059-3.632,8.059-8.06
			C400.921,439.655,397.289,436.023,392.861,436.023z"/>
	</g>
</g>
</svg>
