<?xml version="1.0" encoding="iso-8859-1"?>
<!-- Generator: Adobe Illustrator 19.0.0, SVG Export Plug-In . SVG Version: 6.00 Build 0)  -->
<svg xmlns="http://www.w3.org/2000/svg" xmlns:xlink="http://www.w3.org/1999/xlink" version="1.1" id="Layer_1" x="0px" y="0px" viewBox="0 0 512 512" style="enable-background:new 0 0 512 512;" xml:space="preserve" width="512px" height="512px">
<g>
	<g>
		<path d="M501.801,160.143H351.857V10.199C351.857,4.566,347.291,0,341.658,0H170.342c-5.633,0-10.199,4.566-10.199,10.199v149.944    H10.199C4.566,160.143,0,164.709,0,170.342v171.316c0,5.633,4.566,10.199,10.199,10.199h149.944v149.944    c0,5.633,4.566,10.199,10.199,10.199h171.316c5.633,0,10.199-4.566,10.199-10.199V351.857h149.944    c5.633,0,10.199-4.566,10.199-10.199V170.342C512,164.709,507.434,160.143,501.801,160.143z M491.602,331.459H341.658    c-5.633,0-10.199,4.566-10.199,10.199v149.944H180.541V341.658c0-5.633-4.566-10.199-10.199-10.199H20.398V180.541h149.944    c5.633,0,10.199-4.566,10.199-10.199V20.398h150.918v149.944c0,5.633,4.566,10.199,10.199,10.199h149.944V331.459z" fill="#0e5fa4"/>
	</g>
</g>
<g>
	<g>
		<path d="M158.088,190.725H81.594c-5.633,0-10.199,4.566-10.199,10.199s4.566,10.199,10.199,10.199h76.494    c5.633,0,10.199-4.566,10.199-10.199S163.721,190.725,158.088,190.725z" fill="#0e5fa4"/>
	</g>
</g>
<g>
	<g>
		<path d="M47.936,190.725h-6.12c-5.633,0-10.199,4.566-10.199,10.199s4.566,10.199,10.199,10.199h6.12    c5.633,0,10.199-4.566,10.199-10.199S53.569,190.725,47.936,190.725z" fill="#0e5fa4"/>
	</g>
</g>
<g>
</g>
<g>
</g>
<g>
</g>
<g>
</g>
<g>
</g>
<g>
</g>
<g>
</g>
<g>
</g>
<g>
</g>
<g>
</g>
<g>
</g>
<g>
</g>
<g>
</g>
<g>
</g>
<g>
</g>
</svg>
