<?xml version="1.0" encoding="utf-8"?>
<!-- Generator: Adobe Illustrator 16.0.0, SVG Export Plug-In . SVG Version: 6.00 Build 0)  -->
<!DOCTYPE svg PUBLIC "-//W3C//DTD SVG 1.1//EN" "http://www.w3.org/Graphics/SVG/1.1/DTD/svg11.dtd">
<svg version="1.1" id="Layer_1" xmlns="http://www.w3.org/2000/svg" xmlns:xlink="http://www.w3.org/1999/xlink" x="0px" y="0px"
	 width="175.801px" height="94.901px" viewBox="0 0 175.801 94.901" enable-background="new 0 0 175.801 94.901"
	 xml:space="preserve">
<g>
	<path fill="#F9BB1F" d="M1.631,19.795l-1.63,3.552l22.535,8.967c0.079-0.185,0.18-0.354,0.267-0.527L1.631,19.795z"/>
	<path fill="#F9BB1F" d="M25.805-0.001l-3.643,1.334l9.467,22.194c0.19-0.084,0.38-0.174,0.582-0.247L25.805-0.001z"/>
	<path fill="#F9BB1F" d="M57.393,1.759l-3.507-1.671l-9.188,23.124c0.171,0.061,0.329,0.142,0.491,0.208L57.393,1.759z"/>
	<path fill="#F9BB1F" d="M75.431,19.968l-1.951-3.389L53.304,30.154c0.109,0.163,0.227,0.324,0.328,0.493L75.431,19.968z"/>
	<path fill="#F9BB1F" d="M49.569,39.458c-0.287-6.16-5.464-10.917-11.559-10.628c-6.091,0.286-10.806,5.515-10.519,11.678
		c0.055,1.122,0.313,2.17,0.666,3.178c6.373-2.671,13.675-4.158,21.408-4.181C49.565,39.49,49.569,39.476,49.569,39.458"/>
	<path fill="#008FA5" d="M54.009,48.299c5.302,1.04,10.172,2.827,14.551,5.144c2.735-0.69,5.582-0.967,8.447-0.762
		c-7.276-4.931-16.435-8.315-26.292-9.21c-13.591-1.235-26.008,2.544-34.362,9.435l1.265,0.698
		C26.653,47.733,39.608,45.466,54.009,48.299"/>
	<path fill="#008FA5" d="M49.533,94.189h-7.55V69.338c0-4.258-0.842-7.097-5.874-7.097h-1.68v-1.421h7.554
		c5.869,0,7.55,1.421,7.55,8.518V94.189z"/>
	<path fill="#008FA5" d="M89.384,62.594c2.097,1.777,2.097,3.904,2.097,9.23h-1.68c-0.417-6.037-5.032-8.871-10.907-8.871
		c-8.385,0-12.164,6.386-12.164,14.552c0,8.165,3.779,14.55,12.164,14.55c5.875,0,9.231-2.126,12.168-5.677l1.678,1.065
		c-3.778,5.324-8.813,7.457-15.526,7.457c-12.58,0-18.45-7.811-18.45-17.396c0-9.587,5.87-17.397,18.45-17.397
		C83.091,60.108,87.283,60.821,89.384,62.594"/>
	<path fill="#008FA5" d="M115.392,62.954c-6.294,0-10.484,6.386-10.484,14.552c0,8.165,4.19,14.55,10.484,14.55
		c6.287,0,10.483-6.385,10.483-14.55C125.875,69.339,121.679,62.954,115.392,62.954 M115.392,60.108
		c11.746,0,18.457,7.811,18.457,17.397c0,9.585-6.711,17.396-18.457,17.396c-11.745,0-18.456-7.811-18.456-17.396
		C96.936,67.918,103.647,60.108,115.392,60.108"/>
	<path fill="#008FA5" d="M143.081,69.338c0-4.258-0.836-7.098-5.871-7.098h-1.677v-1.42h7.548c4.196,0,6.291,1.064,7.131,2.84h0.418
		c2.098-1.775,5.875-3.553,10.909-3.553c7.129,0,14.263,2.486,14.263,12.782v21.299h-7.554V72.89c0-7.103-4.609-9.584-9.226-9.584
		c-3.358,0-6.295,1.774-8.393,3.761v27.122h-7.549V69.338z"/>
</g>
</svg>
