<?xml version="1.0" encoding="utf-8"?>
<!-- Generator: Adobe Illustrator 16.0.3, SVG Export Plug-In . SVG Version: 6.00 Build 0)  -->
<!DOCTYPE svg PUBLIC "-//W3C//DTD SVG 1.1//EN" "http://www.w3.org/Graphics/SVG/1.1/DTD/svg11.dtd">
<svg version="1.1" id="Layer_1" xmlns="http://www.w3.org/2000/svg" xmlns:xlink="http://www.w3.org/1999/xlink" x="0px" y="0px"
	 width="167px" height="81px" viewBox="0 0 167 81" enable-background="new 0 0 167 81" xml:space="preserve">
<g>
	<path fill="#029748" d="M154.729,8.061c0,1.509-0.531,3.589-2.655,3.589c-2.567,0-2.567-2.889-2.567-3.497
		c0-0.589,0-3.681,2.637-3.681C154.547,4.471,154.729,7.14,154.729,8.061 M149.543,0h-1.721v11.116l-0.038,1.656h1.665l0.037-1.398
		c0.185,0.275,0.386,0.589,0.899,0.938c0.789,0.534,1.613,0.589,2.051,0.589c1.265,0,2.494-0.534,3.229-1.583
		c0.457-0.607,0.877-1.583,0.877-3.369c0-2.024-0.623-2.944-1.079-3.478c-0.842-0.958-1.999-1.179-2.916-1.179
		c-2.088,0-2.768,1.161-3.004,1.583V0z"/>
	<path fill="#029748" d="M159.511,8.428c0-0.829,0-3.756,2.75-3.756c2.032,0,2.528,1.731,2.528,3.388
		c0,0.663-0.092,1.988-0.752,2.89c-0.586,0.81-1.503,0.902-1.94,0.902C159.677,11.853,159.511,9.551,159.511,8.428 M157.863,16.324
		h1.703v-4.583c0.494,0.81,1.484,1.381,2.822,1.381c2.2,0,4.193-1.509,4.193-4.952c0-3.424-1.885-4.785-3.862-4.785
		c-0.751,0-2.274,0.22-3.136,1.674l-0.036-1.527h-1.74c0.037,0.883,0.056,1.104,0.056,1.509V16.324z"/>
	<path fill="#029748" d="M154.729,8.061c0,1.509-0.531,3.589-2.655,3.589c-2.567,0-2.567-2.889-2.567-3.497
		c0-0.589,0-3.681,2.637-3.681C154.547,4.471,154.729,7.14,154.729,8.061 M149.543,0h-1.721v11.116l-0.038,1.656h1.665l0.037-1.398
		c0.185,0.275,0.386,0.589,0.899,0.938c0.789,0.534,1.613,0.589,2.051,0.589c1.265,0,2.494-0.534,3.229-1.583
		c0.457-0.607,0.877-1.583,0.877-3.369c0-2.024-0.623-2.944-1.079-3.478c-0.842-0.958-1.999-1.179-2.916-1.179
		c-2.088,0-2.768,1.161-3.004,1.583V0z"/>
	<path fill="#029748" d="M159.511,8.428c0-0.829,0-3.756,2.75-3.756c2.032,0,2.528,1.731,2.528,3.388
		c0,0.663-0.092,1.988-0.752,2.89c-0.586,0.81-1.503,0.902-1.94,0.902C159.677,11.853,159.511,9.551,159.511,8.428 M157.863,16.324
		h1.703v-4.583c0.494,0.81,1.484,1.381,2.822,1.381c2.2,0,4.193-1.509,4.193-4.952c0-3.424-1.885-4.785-3.862-4.785
		c-0.751,0-2.274,0.22-3.136,1.674l-0.036-1.527h-1.74c0.037,0.883,0.056,1.104,0.056,1.509V16.324z"/>
	<path fill="#C2C2C2" d="M21.643,58.038c0.409-2.739-1.612-3.677-4.228-3.677c-2.171,0-5.545,1.136-6.096,3.726
		c-0.613,2.888,1.472,3.405,3.72,3.972c0.703,0.174,2.391,0.592,2.181,1.579c-0.204,0.962-1.059,1.382-2.069,1.382
		c-1.086,0-1.834-0.543-1.703-1.504h-3.43c-0.554,2.836,1.722,3.971,4.607,3.971c2.295,0,5.889-1.356,6.466-4.07
		c0.986-4.639-6.331-3.528-5.916-5.477c0.173-0.814,0.704-1.11,1.716-1.11c0.84,0,1.55,0.37,1.422,1.209H21.643z"/>
	<path fill="#0B4E98" d="M33.215,60.924c-0.487,2.295-2.291,5.206-5.276,5.206c-2.984,0-3.55-2.911-3.062-5.206
		c0.487-2.294,2.29-5.205,5.275-5.205S33.703,58.63,33.215,60.924 M30.441,54.361c-3.948,0-6.477,3.307-7.169,6.563
		c-0.691,3.257,0.431,6.563,4.378,6.563s6.476-3.306,7.168-6.563C35.511,57.668,34.388,54.361,30.441,54.361"/>
	<path fill="#0B4E98" d="M47.801,58.531c0.438-2.641-1.309-4.17-3.85-4.17c-3.676,0-6.208,3.207-6.921,6.563
		c-0.72,3.38,0.332,6.563,4.032,6.563c2.813,0,4.739-1.406,5.737-4.244h-1.604c-0.485,1.703-2.069,2.888-3.993,2.888
		c-2.271,0-3.168-2.394-2.565-5.231c0.599-2.812,2.509-5.18,4.778-5.18c2.047,0,3.062,0.912,2.782,2.813H47.801z"/>
	<path fill="#0B4E98" d="M51.544,54.732l-2.633,12.383h1.48l2.632-12.383H51.544z M54.301,49.305h-1.727l-0.394,1.85h1.728
		L54.301,49.305z"/>
	<path fill="#0B4E98" d="M66.033,61.27c0.823-3.873-0.035-6.908-4.181-6.908c-3.676,0-6.208,3.207-6.921,6.563
		c-0.719,3.38,0.332,6.563,4.033,6.563c2.984,0,5.123-1.357,6.517-4.316h-1.554c-0.732,1.701-2.455,2.959-4.207,2.959
		c-3.034,0-3.771-2.221-3.259-4.859H66.033z M56.8,59.912c0.657-2.17,2.371-4.193,4.789-4.193c2.565,0,3.466,1.801,3.13,4.193H56.8z
		"/>
	<path fill="#0B4E98" d="M69.826,63.811c-0.357,1.678-0.954,3.676,2.179,3.676c0.493,0,1.058-0.099,1.552-0.222l0.273-1.282
		c-0.421,0.122-0.871,0.147-1.314,0.147c-1.135,0-1.597-0.617-1.33-1.751l1.762-8.29h2.813l0.288-1.356h-2.812l0.697-3.281
		l-1.617,0.642l-0.561,2.64h-2.468L69,56.089h2.467L69.826,63.811z"/>
	<polygon fill="#0B4E98" points="77.125,54.732 79.624,67.115 76.742,71.854 78.371,71.854 88.845,54.732 87.24,54.732 
		80.894,65.094 78.926,54.732 	"/>
	<path fill="#C2C2C2" d="M17.584,41.085c-0.31,1.455-0.866,3.726-2.914,3.726c-1.036,0-1.644-0.74-1.424-1.776
		C13.672,41.035,16.306,41.061,17.584,41.085 M14.879,38.025c0.07-0.566,0.746-1.776,2.029-1.776c1.309,0,1.488,1.013,1.377,1.53
		l-0.246,1.16c-1.47-0.049-3.359,0.023-4.977,0.666c-2.449,0.961-3.29,3.059-3.473,3.922c-0.515,2.418,0.93,3.75,3.249,3.75
		c1.677,0,3.086-0.592,4.229-2.023h0.049c-0.109,0.518-0.181,1.086-0.228,1.653h3.331c0.028-0.37,0.009-0.74,0.114-1.356
		l1.438-6.761c0.792-3.726-1.802-4.638-4.293-4.638c-1.333,0-2.682,0.197-3.819,0.789c-1.107,0.568-1.979,1.531-2.334,3.084H14.879z
		"/>
	<path fill="#0B4E98" d="M26.197,34.523l-2.633,12.385h1.48l2.632-12.385H26.197z M28.954,29.095h-1.727l-0.394,1.851h1.728
		L28.954,29.095z"/>
	<path fill="#0B4E98" d="M38.875,40.419c-0.599,2.812-2.156,5.502-5.389,5.502c-2.837,0-2.837-3.134-2.35-5.429
		c0.504-2.367,1.972-4.983,4.785-4.983C38.808,35.509,39.409,37.902,38.875,40.419 M37.618,46.908h1.53
		c0.129-0.84,0.264-1.826,0.469-2.788l3.193-15.025h-1.48l-1.542,7.255l-0.059,0.049c-0.554-1.457-2.114-2.246-3.766-2.246
		c-3.677,0-5.785,3.307-6.468,6.514c-0.66,3.107,0.001,6.611,3.678,6.611c1.727,0,3.404-0.814,4.73-2.295l0.028,0.1L37.618,46.908z"
		/>
	<path fill="#C2C2C2" d="M6.32,14.313H2.645L0.012,26.697h3.701l1.584-7.45c0.432-1.801,1.664-2.837,2.822-2.837
		c1.826,0,1.876,1.505,1.618,2.837l-1.584,7.45h3.7l1.584-7.45c0.432-1.801,1.664-2.837,2.823-2.837
		c1.826,0,1.876,1.505,1.618,2.837l-1.584,7.45h3.7l1.583-7.45c0.21-0.987,0.455-2.023,0.26-2.96
		c-0.229-1.357-2.067-2.344-3.449-2.344c-1.875,0-3.192,0.74-4.692,2.344c-0.229-1.357-2.066-2.344-3.449-2.344
		c-1.875,0-3.191,0.74-4.187,1.826H6.012L6.32,14.313z"/>
	<path fill="#0B4E98" d="M35.291,20.851c0.822-3.873-0.037-6.908-4.182-6.908c-3.676,0-6.208,3.207-6.921,6.562
		c-0.719,3.379,0.332,6.563,4.032,6.563c2.986,0,5.124-1.357,6.518-4.317h-1.554c-0.731,1.702-2.455,2.959-4.207,2.959
		c-3.034,0-3.771-2.22-3.259-4.86H35.291z M26.057,19.494c0.658-2.171,2.371-4.194,4.789-4.194c2.566,0,3.466,1.801,3.13,4.194
		H26.057z"/>
	<path fill="#0B4E98" d="M47.186,20.21c-0.598,2.812-2.156,5.502-5.388,5.502c-2.837,0-2.837-3.134-2.351-5.428
		c0.504-2.368,1.973-4.984,4.785-4.984C47.118,15.3,47.721,17.693,47.186,20.21 M45.93,26.697h1.529
		c0.13-0.838,0.265-1.824,0.47-2.787l3.192-15.024h-1.479L48.1,16.14l-0.059,0.049c-0.555-1.456-2.113-2.245-3.767-2.245
		c-3.676,0-5.785,3.306-6.467,6.513c-0.661,3.107,0.001,6.611,3.677,6.611c1.728,0,3.405-0.814,4.731-2.295l0.027,0.1L45.93,26.697z
		"/>
	<path fill="#0B4E98" d="M53.684,14.313l-2.633,12.384h1.481l2.632-12.384H53.684z M56.441,8.887h-1.728l-0.394,1.85h1.728
		L56.441,8.887z"/>
	<path fill="#0B4E98" d="M67.744,18.113c0.438-2.64-1.309-4.169-3.85-4.169c-3.676,0-6.208,3.207-6.921,6.562
		c-0.72,3.38,0.331,6.563,4.032,6.563c2.813,0,4.739-1.406,5.737-4.244H65.14c-0.485,1.703-2.069,2.887-3.993,2.887
		c-2.271,0-3.168-2.394-2.564-5.23c0.598-2.813,2.508-5.181,4.777-5.181c2.047,0,3.062,0.912,2.781,2.812H67.744z"/>
	<path fill="#0B4E98" d="M70.082,23.244c0.661-3.109,4.968-2.714,7.081-2.788c-0.403,2.59-1.586,5.254-4.817,5.254
		C70.84,25.711,69.726,24.922,70.082,23.244 M77.452,19.099c-1.822,0.099-3.917-0.147-5.722,0.568
		c-1.611,0.617-2.896,1.899-3.252,3.577c-0.514,2.418,1.013,3.824,3.308,3.824c1.677,0,3.54-0.986,4.303-2.023l0.11-0.172h0.05
		l-0.339,1.825h1.53c0.129-0.839,0.239-1.825,0.469-2.788l1.248-5.872c0.653-2.837-0.782-4.095-3.521-4.095
		c-2.368,0-4.473,0.962-5.383,3.503h1.578c0.555-1.677,1.938-2.146,3.491-2.146c1.752,0,2.652,0.641,2.369,2.664L77.452,19.099z"/>
	<polygon fill="#0B4E98" points="86.455,8.886 84.976,8.886 81.189,26.698 82.67,26.698 	"/>
	<path fill="#029748" d="M10.266,75.377l-0.104,0.482l0.588-0.007l-0.463,2.17c-0.096,0.456-0.064,0.47,0.017,0.633
		c0.077,0.149,0.235,0.204,0.333,0.224c0.15,0.029,0.271,0.035,0.428,0.035c0.15,0,0.3-0.035,0.451-0.041l0.105-0.496
		c-0.107,0.026-0.246,0.039-0.349,0.039c-0.231,0-0.397-0.115-0.346-0.359l0.469-2.204l0.788,0.007l0.102-0.482l-0.793,0.02
		l0.198-0.932l-0.689,0.205l-0.154,0.727L10.266,75.377z"/>
	<path fill="#029748" d="M12.995,78.812l0.373-1.755c0.041-0.19,0.052-0.436,0.277-0.789c0.183-0.285,0.619-0.483,0.876-0.477
		c0.603,0.014,0.677,0.402,0.55,1l-0.43,2.021h0.646l0.492-2.313c0.13-0.611-0.023-1.203-0.914-1.203
		c-0.497,0-0.902,0.178-1.227,0.558h-0.015l0.415-1.952h-0.646l-1.044,4.911H12.995z"/>
	<path fill="#029748" d="M19.662,77.227l0.068-0.318c0.201-0.947-0.145-1.593-1.161-1.613c-1.081,0-1.762,0.836-1.975,1.836
		c-0.214,1.008,0.057,1.783,1.151,1.783c0.816,0,1.497-0.389,1.765-1.164H18.83c-0.181,0.498-0.474,0.694-0.978,0.694
		c-0.659,0-0.772-0.618-0.598-1.218H19.662z M17.35,76.777c0.119-0.557,0.536-1.013,1.073-1.013c0.626,0,0.79,0.442,0.654,1.013
		H17.35z"/>
	<path fill="#029748" d="M21.309,77.117c0.153-0.721,0.389-1.155,1.211-1.183c0.088,0,0.19,0,0.271,0.034l0.131-0.611
		c-0.075,0-0.143-0.008-0.224-0.008c-0.47,0-0.956,0.238-1.15,0.707h-0.013l0.14-0.66h-0.646l-0.726,3.415h0.646L21.309,77.117z"/>
	<path fill="#029748" d="M26.086,77.227l0.067-0.318c0.201-0.947-0.145-1.593-1.161-1.613c-1.081,0-1.762,0.836-1.975,1.836
		c-0.214,1.008,0.057,1.783,1.152,1.783c0.815,0,1.496-0.389,1.764-1.164h-0.68c-0.182,0.498-0.475,0.694-0.979,0.694
		c-0.66,0-0.772-0.618-0.598-1.218H26.086z M23.772,76.777c0.119-0.557,0.536-1.013,1.073-1.013c0.626,0,0.79,0.442,0.654,1.013
		H23.772z"/>
	<polygon fill="#029748" points="33.639,75.396 32.216,78.09 32.203,78.09 32.007,75.396 31.17,75.396 29.735,78.145 29.722,78.145 
		29.482,75.396 28.781,75.396 29.186,78.812 29.94,78.812 31.422,76.002 31.436,76.002 31.635,78.812 32.369,78.812 34.299,75.396 	
		"/>
	<path fill="#029748" d="M34.903,78.812l0.373-1.755c0.041-0.19,0.052-0.436,0.277-0.789c0.183-0.285,0.619-0.483,0.876-0.477
		c0.603,0.014,0.677,0.402,0.549,1l-0.429,2.021h0.646l0.492-2.313c0.13-0.611-0.023-1.203-0.914-1.203
		c-0.497,0-0.902,0.178-1.228,0.558h-0.014l0.415-1.952h-0.646l-1.044,4.911H34.903z"/>
	<path fill="#029748" d="M41.57,77.227l0.068-0.318c0.201-0.947-0.146-1.593-1.161-1.613c-1.081,0-1.762,0.836-1.975,1.836
		c-0.215,1.008,0.057,1.783,1.151,1.783c0.816,0,1.497-0.389,1.764-1.164h-0.68c-0.181,0.498-0.474,0.694-0.978,0.694
		c-0.659,0-0.773-0.618-0.599-1.218H41.57z M39.258,76.777c0.119-0.557,0.535-1.013,1.072-1.013c0.627,0,0.79,0.442,0.655,1.013
		H39.258z"/>
	<path fill="#029748" d="M43.549,75.396h-0.633l-0.726,3.415h0.646l0.395-1.856c0.142-0.668,0.351-0.816,0.465-0.912
		c0.33-0.272,0.681-0.252,0.681-0.252c0.544,0,0.717,0.307,0.597,0.871l-0.457,2.149h0.646l0.502-2.36
		c0.233-1.095-0.809-1.156-1.047-1.156c-0.34,0-0.854,0.177-1.162,0.604h-0.014L43.549,75.396z"/>
	<polygon fill="#029748" points="52.025,75.396 51.332,75.396 49.671,78.09 49.176,75.396 48.455,75.396 49.154,78.799 
		48.355,80.117 49.016,80.117 	"/>
	<path fill="#029748" d="M54.229,75.295c-1.122,0-1.86,0.748-2.085,1.809c-0.226,1.063,0.194,1.811,1.315,1.811
		c1.122,0,1.859-0.748,2.086-1.811C55.77,76.043,55.351,75.295,54.229,75.295 M52.823,77.104c0.155-0.727,0.537-1.34,1.306-1.34
		s0.89,0.613,0.735,1.34c-0.155,0.729-0.537,1.34-1.305,1.34C52.79,78.443,52.668,77.832,52.823,77.104"/>
	<path fill="#029748" d="M58.811,77.152c-0.018,0.082-0.11,0.482-0.3,0.803c-0.212,0.354-0.602,0.49-0.866,0.49
		c-0.619,0-0.662-0.437-0.537-1.028l0.43-2.021h-0.646l-0.486,2.287c-0.146,0.687,0.146,1.23,0.861,1.23
		c0.476,0,0.948-0.178,1.298-0.605h0.014l-0.106,0.504h0.632l0.726-3.416h-0.646L58.811,77.152z"/>
	<path fill="#029748" d="M63.566,75.396h-0.634l-0.726,3.415h0.646l0.395-1.856c0.142-0.668,0.351-0.816,0.466-0.912
		c0.33-0.272,0.68-0.252,0.68-0.252c0.544,0,0.718,0.307,0.598,0.871l-0.457,2.149h0.646l0.502-2.36
		c0.233-1.095-0.809-1.156-1.047-1.156c-0.34,0-0.854,0.177-1.162,0.604h-0.014L63.566,75.396z"/>
	<path fill="#029748" d="M69.521,77.227l0.068-0.318c0.2-0.947-0.146-1.593-1.161-1.613c-1.081,0-1.763,0.836-1.976,1.836
		c-0.214,1.008,0.058,1.783,1.152,1.783c0.815,0,1.497-0.389,1.764-1.164h-0.68c-0.181,0.498-0.474,0.694-0.978,0.694
		c-0.659,0-0.773-0.618-0.599-1.218H69.521z M67.207,76.777c0.119-0.557,0.536-1.013,1.073-1.013c0.626,0,0.79,0.442,0.655,1.013
		H67.207z"/>
	<path fill="#029748" d="M73.3,77.227l0.068-0.318c0.201-0.947-0.146-1.593-1.161-1.613c-1.081,0-1.762,0.836-1.975,1.836
		c-0.215,1.008,0.057,1.783,1.151,1.783c0.816,0,1.497-0.389,1.765-1.164h-0.681c-0.181,0.498-0.474,0.694-0.978,0.694
		c-0.659,0-0.773-0.618-0.599-1.218H73.3z M70.987,76.777c0.118-0.557,0.536-1.013,1.073-1.013c0.625,0,0.789,0.442,0.654,1.013
		H70.987z"/>
	<path fill="#029748" d="M74.72,77.098c0.136-0.639,0.478-1.354,1.254-1.354c0.733,0,0.809,0.734,0.678,1.354
		c-0.136,0.639-0.474,1.367-1.257,1.367C74.667,78.465,74.583,77.736,74.72,77.098 M76.907,75.859h-0.013
		c-0.111-0.408-0.506-0.564-0.942-0.564c-1.061,0-1.718,0.885-1.915,1.81c-0.186,0.877,0.018,1.81,1.031,1.81
		c0.496,0,0.981-0.17,1.314-0.646h0.013l-0.007,0.033l-0.088,0.511h0.66c0.027-0.197,0.051-0.401,0.095-0.604l0.915-4.307h-0.647
		L76.907,75.859z"/>
	<path fill="#029748" d="M82.607,77.152c-0.018,0.082-0.109,0.482-0.301,0.803c-0.211,0.354-0.601,0.49-0.865,0.49
		c-0.619,0-0.662-0.437-0.537-1.028l0.43-2.021h-0.646l-0.485,2.287c-0.146,0.687,0.146,1.23,0.86,1.23
		c0.477,0,0.949-0.178,1.299-0.605h0.014l-0.107,0.504H82.9l0.726-3.416H82.98L82.607,77.152z"/>
	<path fill="#029748" d="M84.392,76.329c-0.283,1.333,1.913,0.763,1.751,1.522c-0.094,0.442-0.515,0.592-0.896,0.592
		c-0.394,0-0.632-0.223-0.556-0.645h-0.68c-0.176,0.788,0.354,1.115,1.068,1.115c0.7,0,1.572-0.259,1.749-1.096
		c0.164-0.768-0.487-0.836-1.025-1.027c-0.229-0.074-0.809-0.102-0.729-0.482c0.082-0.381,0.396-0.545,0.742-0.545
		c0.374,0,0.677,0.144,0.557,0.58h0.682c0.212-0.777-0.458-1.049-1.104-1.049C85.332,75.295,84.543,75.615,84.392,76.329"/>
	<polygon fill="#029748" points="87.628,77.996 87.454,78.811 88.244,78.811 88.417,77.996 	"/>
	<path fill="#029748" d="M154.729,8.061c0,1.509-0.531,3.589-2.655,3.589c-2.567,0-2.567-2.889-2.567-3.497
		c0-0.589,0-3.681,2.637-3.681C154.547,4.471,154.729,7.14,154.729,8.061 M149.543,0h-1.721v11.116l-0.038,1.656h1.665l0.037-1.398
		c0.185,0.275,0.386,0.589,0.899,0.938c0.789,0.534,1.613,0.589,2.051,0.589c1.265,0,2.494-0.534,3.229-1.583
		c0.457-0.607,0.877-1.583,0.877-3.369c0-2.024-0.623-2.944-1.079-3.478c-0.842-0.958-1.999-1.179-2.916-1.179
		c-2.088,0-2.768,1.161-3.004,1.583V0z"/>
	<path fill="#029748" d="M159.511,8.428c0-0.829,0-3.756,2.75-3.756c2.032,0,2.528,1.731,2.528,3.388
		c0,0.663-0.092,1.988-0.752,2.89c-0.586,0.81-1.503,0.902-1.94,0.902C159.677,11.853,159.511,9.551,159.511,8.428 M157.863,16.324
		h1.703v-4.583c0.494,0.81,1.484,1.381,2.822,1.381c2.2,0,4.193-1.509,4.193-4.952c0-3.424-1.885-4.785-3.862-4.785
		c-0.751,0-2.274,0.22-3.136,1.674l-0.036-1.527h-1.74c0.037,0.883,0.056,1.104,0.056,1.509V16.324z"/>
	<path fill="#C2C2C2" d="M21.643,58.038c0.409-2.739-1.612-3.677-4.228-3.677c-2.171,0-5.545,1.136-6.096,3.726
		c-0.613,2.888,1.472,3.405,3.72,3.972c0.703,0.174,2.391,0.592,2.181,1.579c-0.204,0.962-1.059,1.382-2.069,1.382
		c-1.086,0-1.834-0.543-1.703-1.504h-3.43c-0.554,2.836,1.722,3.971,4.607,3.971c2.295,0,5.889-1.356,6.466-4.07
		c0.986-4.639-6.331-3.528-5.916-5.477c0.173-0.814,0.704-1.11,1.716-1.11c0.84,0,1.55,0.37,1.422,1.209H21.643z"/>
	<path fill="#0B4E98" d="M33.215,60.924c-0.487,2.295-2.291,5.206-5.276,5.206c-2.984,0-3.55-2.911-3.062-5.206
		c0.487-2.294,2.29-5.205,5.275-5.205S33.703,58.63,33.215,60.924 M30.441,54.361c-3.948,0-6.477,3.307-7.169,6.563
		c-0.691,3.257,0.431,6.563,4.378,6.563s6.476-3.306,7.168-6.563C35.511,57.668,34.388,54.361,30.441,54.361"/>
	<path fill="#0B4E98" d="M47.801,58.531c0.438-2.641-1.309-4.17-3.85-4.17c-3.676,0-6.208,3.207-6.921,6.563
		c-0.72,3.38,0.332,6.563,4.032,6.563c2.813,0,4.739-1.406,5.737-4.244h-1.604c-0.485,1.703-2.069,2.888-3.993,2.888
		c-2.271,0-3.168-2.394-2.565-5.231c0.599-2.812,2.509-5.18,4.778-5.18c2.047,0,3.062,0.912,2.782,2.813H47.801z"/>
	<path fill="#0B4E98" d="M51.544,54.732l-2.633,12.383h1.48l2.632-12.383H51.544z M54.301,49.305h-1.727l-0.394,1.85h1.728
		L54.301,49.305z"/>
	<path fill="#0B4E98" d="M66.033,61.27c0.823-3.873-0.035-6.908-4.181-6.908c-3.676,0-6.208,3.207-6.921,6.563
		c-0.719,3.38,0.332,6.563,4.033,6.563c2.984,0,5.123-1.357,6.517-4.316h-1.554c-0.732,1.701-2.455,2.959-4.207,2.959
		c-3.034,0-3.771-2.221-3.259-4.859H66.033z M56.8,59.912c0.657-2.17,2.371-4.193,4.789-4.193c2.565,0,3.466,1.801,3.13,4.193H56.8z
		"/>
	<path fill="#0B4E98" d="M69.826,63.811c-0.357,1.678-0.954,3.676,2.179,3.676c0.493,0,1.058-0.099,1.552-0.222l0.273-1.282
		c-0.421,0.122-0.871,0.147-1.314,0.147c-1.135,0-1.597-0.617-1.33-1.751l1.762-8.29h2.813l0.288-1.356h-2.812l0.697-3.281
		l-1.617,0.642l-0.561,2.64h-2.468L69,56.089h2.467L69.826,63.811z"/>
	<polygon fill="#0B4E98" points="77.125,54.732 79.624,67.115 76.742,71.854 78.371,71.854 88.845,54.732 87.24,54.732 
		80.894,65.094 78.926,54.732 	"/>
	<path fill="#C2C2C2" d="M17.584,41.085c-0.31,1.455-0.866,3.726-2.914,3.726c-1.036,0-1.644-0.74-1.424-1.776
		C13.672,41.035,16.306,41.061,17.584,41.085 M14.879,38.025c0.07-0.566,0.746-1.776,2.029-1.776c1.309,0,1.488,1.013,1.377,1.53
		l-0.246,1.16c-1.47-0.049-3.359,0.023-4.977,0.666c-2.449,0.961-3.29,3.059-3.473,3.922c-0.515,2.418,0.93,3.75,3.249,3.75
		c1.677,0,3.086-0.592,4.229-2.023h0.049c-0.109,0.518-0.181,1.086-0.228,1.653h3.331c0.028-0.37,0.009-0.74,0.114-1.356
		l1.438-6.761c0.792-3.726-1.802-4.638-4.293-4.638c-1.333,0-2.682,0.197-3.819,0.789c-1.107,0.568-1.979,1.531-2.334,3.084H14.879z
		"/>
	<path fill="#0B4E98" d="M26.197,34.523l-2.633,12.385h1.48l2.632-12.385H26.197z M28.954,29.095h-1.727l-0.394,1.851h1.728
		L28.954,29.095z"/>
	<path fill="#0B4E98" d="M38.875,40.419c-0.599,2.812-2.156,5.502-5.389,5.502c-2.837,0-2.837-3.134-2.35-5.429
		c0.504-2.367,1.972-4.983,4.785-4.983C38.808,35.509,39.409,37.902,38.875,40.419 M37.618,46.908h1.53
		c0.129-0.84,0.264-1.826,0.469-2.788l3.193-15.025h-1.48l-1.542,7.255l-0.059,0.049c-0.554-1.457-2.114-2.246-3.766-2.246
		c-3.677,0-5.785,3.307-6.468,6.514c-0.66,3.107,0.001,6.611,3.678,6.611c1.727,0,3.404-0.814,4.73-2.295l0.028,0.1L37.618,46.908z"
		/>
	<path fill="#C2C2C2" d="M6.32,14.313H2.645L0.012,26.697h3.701l1.584-7.45c0.432-1.801,1.664-2.837,2.822-2.837
		c1.826,0,1.876,1.505,1.618,2.837l-1.584,7.45h3.7l1.584-7.45c0.432-1.801,1.664-2.837,2.823-2.837
		c1.826,0,1.876,1.505,1.618,2.837l-1.584,7.45h3.7l1.583-7.45c0.21-0.987,0.455-2.023,0.26-2.96
		c-0.229-1.357-2.067-2.344-3.449-2.344c-1.875,0-3.192,0.74-4.692,2.344c-0.229-1.357-2.066-2.344-3.449-2.344
		c-1.875,0-3.191,0.74-4.187,1.826H6.012L6.32,14.313z"/>
	<path fill="#0B4E98" d="M35.291,20.851c0.822-3.873-0.037-6.908-4.182-6.908c-3.676,0-6.208,3.207-6.921,6.562
		c-0.719,3.379,0.332,6.563,4.032,6.563c2.986,0,5.124-1.357,6.518-4.317h-1.554c-0.731,1.702-2.455,2.959-4.207,2.959
		c-3.034,0-3.771-2.22-3.259-4.86H35.291z M26.057,19.494c0.658-2.171,2.371-4.194,4.789-4.194c2.566,0,3.466,1.801,3.13,4.194
		H26.057z"/>
	<path fill="#0B4E98" d="M47.186,20.21c-0.598,2.812-2.156,5.502-5.388,5.502c-2.837,0-2.837-3.134-2.351-5.428
		c0.504-2.368,1.973-4.984,4.785-4.984C47.118,15.3,47.721,17.693,47.186,20.21 M45.93,26.697h1.529
		c0.13-0.838,0.265-1.824,0.47-2.787l3.192-15.024h-1.479L48.1,16.14l-0.059,0.049c-0.555-1.456-2.113-2.245-3.767-2.245
		c-3.676,0-5.785,3.306-6.467,6.513c-0.661,3.107,0.001,6.611,3.677,6.611c1.728,0,3.405-0.814,4.731-2.295l0.027,0.1L45.93,26.697z
		"/>
	<path fill="#0B4E98" d="M53.684,14.313l-2.633,12.384h1.481l2.632-12.384H53.684z M56.441,8.887h-1.728l-0.394,1.85h1.728
		L56.441,8.887z"/>
	<path fill="#0B4E98" d="M67.744,18.113c0.438-2.64-1.309-4.169-3.85-4.169c-3.676,0-6.208,3.207-6.921,6.562
		c-0.72,3.38,0.331,6.563,4.032,6.563c2.813,0,4.739-1.406,5.737-4.244H65.14c-0.485,1.703-2.069,2.887-3.993,2.887
		c-2.271,0-3.168-2.394-2.564-5.23c0.598-2.813,2.508-5.181,4.777-5.181c2.047,0,3.062,0.912,2.781,2.812H67.744z"/>
	<path fill="#0B4E98" d="M70.082,23.244c0.661-3.109,4.968-2.714,7.081-2.788c-0.403,2.59-1.586,5.254-4.817,5.254
		C70.84,25.711,69.726,24.922,70.082,23.244 M77.452,19.099c-1.822,0.099-3.917-0.147-5.722,0.568
		c-1.611,0.617-2.896,1.899-3.252,3.577c-0.514,2.418,1.013,3.824,3.308,3.824c1.677,0,3.54-0.986,4.303-2.023l0.11-0.172h0.05
		l-0.339,1.825h1.53c0.129-0.839,0.239-1.825,0.469-2.788l1.248-5.872c0.653-2.837-0.782-4.095-3.521-4.095
		c-2.368,0-4.473,0.962-5.383,3.503h1.578c0.555-1.677,1.938-2.146,3.491-2.146c1.752,0,2.652,0.641,2.369,2.664L77.452,19.099z"/>
	<polygon fill="#0B4E98" points="86.455,8.886 84.976,8.886 81.189,26.698 82.67,26.698 	"/>
	<path fill="#029748" d="M10.266,75.377l-0.104,0.482l0.588-0.007l-0.463,2.17c-0.096,0.456-0.064,0.47,0.017,0.633
		c0.077,0.149,0.235,0.204,0.333,0.224c0.15,0.029,0.271,0.035,0.428,0.035c0.15,0,0.3-0.035,0.451-0.041l0.105-0.496
		c-0.107,0.026-0.246,0.039-0.349,0.039c-0.231,0-0.397-0.115-0.346-0.359l0.469-2.204l0.788,0.007l0.102-0.482l-0.793,0.02
		l0.198-0.932l-0.689,0.205l-0.154,0.727L10.266,75.377z"/>
	<path fill="#029748" d="M12.995,78.812l0.373-1.755c0.041-0.19,0.052-0.436,0.277-0.789c0.183-0.285,0.619-0.483,0.876-0.477
		c0.603,0.014,0.677,0.402,0.55,1l-0.43,2.021h0.646l0.492-2.313c0.13-0.611-0.023-1.203-0.914-1.203
		c-0.497,0-0.902,0.178-1.227,0.558h-0.015l0.415-1.952h-0.646l-1.044,4.911H12.995z"/>
	<path fill="#029748" d="M19.662,77.227l0.068-0.318c0.201-0.947-0.145-1.593-1.161-1.613c-1.081,0-1.762,0.836-1.975,1.836
		c-0.214,1.008,0.057,1.783,1.151,1.783c0.816,0,1.497-0.389,1.765-1.164H18.83c-0.181,0.498-0.474,0.694-0.978,0.694
		c-0.659,0-0.772-0.618-0.598-1.218H19.662z M17.35,76.777c0.119-0.557,0.536-1.013,1.073-1.013c0.626,0,0.79,0.442,0.654,1.013
		H17.35z"/>
	<path fill="#029748" d="M21.309,77.117c0.153-0.721,0.389-1.155,1.211-1.183c0.088,0,0.19,0,0.271,0.034l0.131-0.611
		c-0.075,0-0.143-0.008-0.224-0.008c-0.47,0-0.956,0.238-1.15,0.707h-0.013l0.14-0.66h-0.646l-0.726,3.415h0.646L21.309,77.117z"/>
	<path fill="#029748" d="M26.086,77.227l0.067-0.318c0.201-0.947-0.145-1.593-1.161-1.613c-1.081,0-1.762,0.836-1.975,1.836
		c-0.214,1.008,0.057,1.783,1.152,1.783c0.815,0,1.496-0.389,1.764-1.164h-0.68c-0.182,0.498-0.475,0.694-0.979,0.694
		c-0.66,0-0.772-0.618-0.598-1.218H26.086z M23.772,76.777c0.119-0.557,0.536-1.013,1.073-1.013c0.626,0,0.79,0.442,0.654,1.013
		H23.772z"/>
	<polygon fill="#029748" points="33.639,75.396 32.216,78.09 32.203,78.09 32.007,75.396 31.17,75.396 29.735,78.145 29.722,78.145 
		29.482,75.396 28.781,75.396 29.186,78.812 29.94,78.812 31.422,76.002 31.436,76.002 31.635,78.812 32.369,78.812 34.299,75.396 	
		"/>
	<path fill="#029748" d="M34.903,78.812l0.373-1.755c0.041-0.19,0.052-0.436,0.277-0.789c0.183-0.285,0.619-0.483,0.876-0.477
		c0.603,0.014,0.677,0.402,0.549,1l-0.429,2.021h0.646l0.492-2.313c0.13-0.611-0.023-1.203-0.914-1.203
		c-0.497,0-0.902,0.178-1.228,0.558h-0.014l0.415-1.952h-0.646l-1.044,4.911H34.903z"/>
	<path fill="#029748" d="M41.57,77.227l0.068-0.318c0.201-0.947-0.146-1.593-1.161-1.613c-1.081,0-1.762,0.836-1.975,1.836
		c-0.215,1.008,0.057,1.783,1.151,1.783c0.816,0,1.497-0.389,1.764-1.164h-0.68c-0.181,0.498-0.474,0.694-0.978,0.694
		c-0.659,0-0.773-0.618-0.599-1.218H41.57z M39.258,76.777c0.119-0.557,0.535-1.013,1.072-1.013c0.627,0,0.79,0.442,0.655,1.013
		H39.258z"/>
	<path fill="#029748" d="M43.549,75.396h-0.633l-0.726,3.415h0.646l0.395-1.856c0.142-0.668,0.351-0.816,0.465-0.912
		c0.33-0.272,0.681-0.252,0.681-0.252c0.544,0,0.717,0.307,0.597,0.871l-0.457,2.149h0.646l0.502-2.36
		c0.233-1.095-0.809-1.156-1.047-1.156c-0.34,0-0.854,0.177-1.162,0.604h-0.014L43.549,75.396z"/>
	<polygon fill="#029748" points="52.025,75.396 51.332,75.396 49.671,78.09 49.176,75.396 48.455,75.396 49.154,78.799 
		48.355,80.117 49.016,80.117 	"/>
	<path fill="#029748" d="M54.229,75.295c-1.122,0-1.86,0.748-2.085,1.809c-0.226,1.063,0.194,1.811,1.315,1.811
		c1.122,0,1.859-0.748,2.086-1.811C55.77,76.043,55.351,75.295,54.229,75.295 M52.823,77.104c0.155-0.727,0.537-1.34,1.306-1.34
		s0.89,0.613,0.735,1.34c-0.155,0.729-0.537,1.34-1.305,1.34C52.79,78.443,52.668,77.832,52.823,77.104"/>
	<path fill="#029748" d="M58.811,77.152c-0.018,0.082-0.11,0.482-0.3,0.803c-0.212,0.354-0.602,0.49-0.866,0.49
		c-0.619,0-0.662-0.437-0.537-1.028l0.43-2.021h-0.646l-0.486,2.287c-0.146,0.687,0.146,1.23,0.861,1.23
		c0.476,0,0.948-0.178,1.298-0.605h0.014l-0.106,0.504h0.632l0.726-3.416h-0.646L58.811,77.152z"/>
	<path fill="#029748" d="M63.566,75.396h-0.634l-0.726,3.415h0.646l0.395-1.856c0.142-0.668,0.351-0.816,0.466-0.912
		c0.33-0.272,0.68-0.252,0.68-0.252c0.544,0,0.718,0.307,0.598,0.871l-0.457,2.149h0.646l0.502-2.36
		c0.233-1.095-0.809-1.156-1.047-1.156c-0.34,0-0.854,0.177-1.162,0.604h-0.014L63.566,75.396z"/>
	<path fill="#029748" d="M69.521,77.227l0.068-0.318c0.2-0.947-0.146-1.593-1.161-1.613c-1.081,0-1.763,0.836-1.976,1.836
		c-0.214,1.008,0.058,1.783,1.152,1.783c0.815,0,1.497-0.389,1.764-1.164h-0.68c-0.181,0.498-0.474,0.694-0.978,0.694
		c-0.659,0-0.773-0.618-0.599-1.218H69.521z M67.207,76.777c0.119-0.557,0.536-1.013,1.073-1.013c0.626,0,0.79,0.442,0.655,1.013
		H67.207z"/>
	<path fill="#029748" d="M73.3,77.227l0.068-0.318c0.201-0.947-0.146-1.593-1.161-1.613c-1.081,0-1.762,0.836-1.975,1.836
		c-0.215,1.008,0.057,1.783,1.151,1.783c0.816,0,1.497-0.389,1.765-1.164h-0.681c-0.181,0.498-0.474,0.694-0.978,0.694
		c-0.659,0-0.773-0.618-0.599-1.218H73.3z M70.987,76.777c0.118-0.557,0.536-1.013,1.073-1.013c0.625,0,0.789,0.442,0.654,1.013
		H70.987z"/>
	<path fill="#029748" d="M74.72,77.098c0.136-0.639,0.478-1.354,1.254-1.354c0.733,0,0.809,0.734,0.678,1.354
		c-0.136,0.639-0.474,1.367-1.257,1.367C74.667,78.465,74.583,77.736,74.72,77.098 M76.907,75.859h-0.013
		c-0.111-0.408-0.506-0.564-0.942-0.564c-1.061,0-1.718,0.885-1.915,1.81c-0.186,0.877,0.018,1.81,1.031,1.81
		c0.496,0,0.981-0.17,1.314-0.646h0.013l-0.007,0.033l-0.088,0.511h0.66c0.027-0.197,0.051-0.401,0.095-0.604l0.915-4.307h-0.647
		L76.907,75.859z"/>
	<path fill="#029748" d="M82.607,77.152c-0.018,0.082-0.109,0.482-0.301,0.803c-0.211,0.354-0.601,0.49-0.865,0.49
		c-0.619,0-0.662-0.437-0.537-1.028l0.43-2.021h-0.646l-0.485,2.287c-0.146,0.687,0.146,1.23,0.86,1.23
		c0.477,0,0.949-0.178,1.299-0.605h0.014l-0.107,0.504H82.9l0.726-3.416H82.98L82.607,77.152z"/>
	<path fill="#029748" d="M84.392,76.329c-0.283,1.333,1.913,0.763,1.751,1.522c-0.094,0.442-0.515,0.592-0.896,0.592
		c-0.394,0-0.632-0.223-0.556-0.645h-0.68c-0.176,0.788,0.354,1.115,1.068,1.115c0.7,0,1.572-0.259,1.749-1.096
		c0.164-0.768-0.487-0.836-1.025-1.027c-0.229-0.074-0.809-0.102-0.729-0.482c0.082-0.381,0.396-0.545,0.742-0.545
		c0.374,0,0.677,0.144,0.557,0.58h0.682c0.212-0.777-0.458-1.049-1.104-1.049C85.332,75.295,84.543,75.615,84.392,76.329"/>
	<polygon fill="#029748" points="87.628,77.996 87.454,78.811 88.244,78.811 88.417,77.996 	"/>
	<path fill="#029748" d="M144.201,22.696c-1.299-3.078-2.893-5.428-3.522-6.378c-0.632,0.95-2.226,3.3-3.521,6.378
		c1.27,1.373,2.521,2.988,3.521,4.822C141.674,25.684,142.93,24.068,144.201,22.696"/>
	<path fill="#029748" d="M137.158,62.788c1.295,3.077,2.889,5.426,3.521,6.377c0.63-0.951,2.224-3.3,3.522-6.377
		c-1.271-1.375-2.527-2.991-3.522-4.822C139.681,59.797,138.429,61.413,137.158,62.788"/>
	<path fill="#029748" d="M137.158,22.696c-2.263-2.45-4.561-4.108-5.476-4.784c-0.271,1.108-0.967,3.863-1.135,7.204
		c1.657,0.853,3.387,1.941,4.947,3.318C135.809,26.367,136.436,24.419,137.158,22.696"/>
	<path fill="#029748" d="M144.201,62.788c2.259,2.448,4.56,4.106,5.475,4.782c0.27-1.108,0.967-3.864,1.133-7.199
		c-1.654-0.855-3.386-1.947-4.947-3.323C145.549,59.113,144.921,61.063,144.201,62.788"/>
	<path fill="#029748" d="M130.548,25.115c-2.961-1.523-5.687-2.294-6.775-2.617c0.122,1.137,0.404,3.966,1.385,7.16
		c1.847,0.23,3.841,0.66,5.779,1.42C130.526,29.031,130.451,26.981,130.548,25.115"/>
	<path fill="#029748" d="M150.81,60.371c2.96,1.521,5.684,2.291,6.776,2.611c-0.122-1.135-0.408-3.965-1.387-7.158
		c-1.846-0.23-3.843-0.662-5.78-1.424C150.83,56.453,150.904,58.5,150.81,60.371"/>
	<path fill="#029748" d="M127.553,35.13c-1.08-1.785-1.847-3.687-2.396-5.472c-3.302-0.416-6.123-0.202-7.259-0.129
		c0.503,1.023,1.731,3.584,3.735,6.25C123.452,35.361,125.476,35.082,127.553,35.13"/>
	<path fill="#029748" d="M153.801,50.354c1.085,1.785,1.856,3.687,2.398,5.472c3.302,0.413,6.125,0.2,7.261,0.131
		c-0.505-1.028-1.729-3.588-3.74-6.255C157.905,50.12,155.884,50.402,153.801,50.354"/>
	<path fill="#029748" d="M121.635,35.779c-3.241,0.744-5.82,1.914-6.861,2.373c0.823,0.789,2.85,2.773,5.642,4.588
		c1.562-1.012,3.366-1.977,5.339-2.643C124.129,38.791,122.762,37.27,121.635,35.779"/>
	<path fill="#029748" d="M160.939,42.74c-1.563,1.018-3.366,1.979-5.335,2.645c1.622,1.305,2.994,2.825,4.116,4.316
		c3.244-0.743,5.826-1.911,6.861-2.371C165.763,46.542,163.735,44.553,160.939,42.74"/>
	<path fill="#029748" d="M125.753,45.385c-1.971-0.666-3.776-1.627-5.338-2.644c-2.792,1.812-4.819,3.802-5.642,4.589
		c1.042,0.461,3.621,1.627,6.86,2.371C122.761,48.211,124.129,46.69,125.753,45.385"/>
	<path fill="#029748" d="M155.604,40.098c1.97,0.667,3.773,1.631,5.335,2.643c2.795-1.814,4.823-3.799,5.644-4.586
		c-1.037-0.461-3.617-1.631-6.862-2.375C158.599,37.27,157.227,38.792,155.604,40.098"/>
	<path fill="#029748" d="M121.635,49.701c-2.004,2.666-3.233,5.227-3.736,6.255c1.136,0.069,3.957,0.282,7.259-0.132
		c0.549-1.784,1.316-3.687,2.396-5.471C125.476,50.402,123.452,50.119,121.635,49.701"/>
	<path fill="#029748" d="M159.721,35.779c2.01-2.666,3.234-5.227,3.738-6.254c-1.135-0.069-3.958-0.283-7.26,0.133
		c-0.543,1.785-1.314,3.687-2.398,5.472C155.883,35.082,157.905,35.361,159.721,35.779"/>
	<path fill="#029748" d="M130.937,54.4c-1.938,0.762-3.933,1.191-5.778,1.424c-0.981,3.193-1.264,6.023-1.386,7.158
		c1.089-0.32,3.814-1.09,6.775-2.611C130.451,58.5,130.526,56.453,130.937,54.4"/>
	<path fill="#029748" d="M150.419,31.078c1.938-0.762,3.935-1.189,5.78-1.419c0.979-3.194,1.265-6.024,1.387-7.161
		c-1.093,0.32-3.816,1.092-6.777,2.613C150.904,26.98,150.83,29.027,150.419,31.078"/>
	<path fill="#029748" d="M130.548,60.371c0.168,3.336,0.863,6.09,1.135,7.2c0.915-0.677,3.213-2.334,5.475-4.782
		c-0.722-1.727-1.349-3.677-1.661-5.742C133.935,58.424,132.205,59.517,130.548,60.371"/>
	<path fill="#029748" d="M150.81,25.111c-0.167-3.336-0.865-6.091-1.134-7.199c-0.916,0.675-3.217,2.334-5.475,4.784
		c0.72,1.719,1.348,3.672,1.66,5.737C147.423,27.057,149.153,25.967,150.81,25.111"/>
	<path fill="#86BC40" d="M138.875,32.47c0.333-1.787,0.98-3.442,1.804-4.953c-0.999-1.833-2.251-3.448-3.521-4.821
		c-0.724,1.722-1.35,3.673-1.663,5.737C136.783,29.572,137.958,30.906,138.875,32.47"/>
	<path fill="#86BC40" d="M142.482,53.012c-0.335,1.787-0.979,3.442-1.804,4.953c0.995,1.832,2.252,3.448,3.521,4.823
		c0.722-1.726,1.349-3.675,1.661-5.741C144.576,55.909,143.399,54.575,142.482,53.012"/>
	<path fill="#86BC40" d="M130.937,31.078c1.597,0.625,3.152,1.477,4.55,2.629c-0.294-1.791-0.251-3.57,0.009-5.273
		c-1.561-1.377-3.29-2.465-4.947-3.319C130.451,26.98,130.526,29.031,130.937,31.078"/>
	<path fill="#86BC40" d="M150.419,54.4c-1.596-0.623-3.148-1.477-4.547-2.625c0.295,1.79,0.248,3.566-0.01,5.271
		c1.561,1.377,3.291,2.47,4.946,3.324C150.904,58.5,150.83,56.453,150.419,54.4"/>
	<path fill="#86BC40" d="M132.727,36.037c-0.892-1.582-1.453-3.27-1.79-4.959c-1.938-0.76-3.934-1.189-5.779-1.42
		c0.549,1.785,1.316,3.688,2.396,5.471C129.266,35.168,131.021,35.436,132.727,36.037"/>
	<path fill="#86BC40" d="M148.632,49.446c0.887,1.58,1.452,3.267,1.788,4.954c1.937,0.762,3.934,1.193,5.778,1.424
		c-0.542-1.784-1.313-3.686-2.397-5.471C152.091,50.314,150.337,50.049,148.632,49.446"/>
	<path fill="#86BC40" d="M125.753,40.098c1.623-0.553,3.36-0.906,5.169-0.924c-1.374-1.182-2.48-2.572-3.369-4.044
		c-2.078-0.048-4.101,0.231-5.919,0.649C122.761,37.27,124.129,38.792,125.753,40.098"/>
	<path fill="#86BC40" d="M155.604,45.385c-1.626,0.551-3.362,0.904-5.169,0.924c1.375,1.181,2.478,2.574,3.365,4.046
		c2.083,0.048,4.104-0.235,5.92-0.653C158.599,48.211,157.227,46.69,155.604,45.385"/>
	<path fill="#86BC40" d="M130.293,42.74c-1.69-0.637-3.201-1.568-4.54-2.643c-1.972,0.666-3.776,1.631-5.338,2.643
		c1.562,1.018,3.366,1.979,5.338,2.645C127.092,44.309,128.603,43.378,130.293,42.74"/>
	<path fill="#86BC40" d="M151.062,42.74c1.692,0.638,3.204,1.568,4.543,2.645c1.969-0.666,3.772-1.627,5.335-2.645
		c-1.563-1.012-3.366-1.977-5.335-2.643C154.266,41.172,152.754,42.104,151.062,42.74"/>
	<path fill="#86BC40" d="M127.553,50.354c0.889-1.472,1.995-2.865,3.368-4.045c-1.808-0.02-3.545-0.371-5.168-0.924
		c-1.625,1.305-2.992,2.826-4.119,4.316C123.452,50.12,125.476,50.402,127.553,50.354"/>
	<path fill="#86BC40" d="M153.801,35.13c-0.888,1.472-1.991,2.862-3.365,4.044c1.808,0.018,3.542,0.371,5.17,0.924
		c1.621-1.307,2.993-2.828,4.114-4.318C157.905,35.361,155.884,35.082,153.801,35.13"/>
	<path fill="#86BC40" d="M132.727,49.446c-1.706,0.603-3.461,0.868-5.174,0.907c-1.079,1.785-1.847,3.687-2.396,5.471
		c1.846-0.232,3.841-0.662,5.779-1.424C131.273,52.713,131.835,51.026,132.727,49.446"/>
	<path fill="#86BC40" d="M148.632,36.037c1.705-0.602,3.459-0.869,5.169-0.908c1.085-1.783,1.855-3.686,2.397-5.471
		c-1.845,0.23-3.842,0.659-5.778,1.42C150.084,32.768,149.519,34.455,148.632,36.037"/>
	<path fill="#86BC40" d="M138.875,53.012c-0.917,1.563-2.092,2.897-3.38,4.035c0.313,2.066,0.939,4.016,1.663,5.741
		c1.27-1.375,2.521-2.991,3.521-4.823C139.855,56.454,139.208,54.799,138.875,53.012"/>
	<path fill="#86BC40" d="M135.486,51.775c-1.396,1.149-2.954,2.002-4.55,2.625c-0.41,2.053-0.485,4.101-0.39,5.972
		c1.657-0.854,3.388-1.947,4.948-3.324C135.235,55.342,135.192,53.564,135.486,51.775"/>
	<path fill="#86BC40" d="M142.482,32.47c0.917-1.563,2.094-2.899,3.379-4.037c-0.313-2.063-0.939-4.017-1.661-5.737
		c-1.27,1.373-2.526,2.988-3.521,4.821C141.504,29.027,142.147,30.683,142.482,32.47"/>
	<path fill="#86BC40" d="M145.872,33.707c1.397-1.152,2.951-2.003,4.547-2.629c0.411-2.051,0.486-4.098,0.39-5.967
		c-1.654,0.855-3.386,1.945-4.946,3.322C146.121,30.137,146.167,31.916,145.872,33.707"/>
	<path fill="#FFFFFF" d="M138.882,37.788c-0.927-1.664-2.091-3.005-3.396-4.081c0.276,1.674,0.85,3.355,1.817,4.994
		c-1.438-1.242-2.985-2.102-4.577-2.664c0.823,1.477,1.938,2.861,3.407,4.068c-1.776-0.676-3.525-0.951-5.212-0.932
		c1.28,1.104,2.794,2.02,4.587,2.652c-1.896-0.025-3.633,0.318-5.216,0.914c1.583,0.598,3.319,0.939,5.216,0.916
		c-1.793,0.632-3.307,1.549-4.587,2.652c1.687,0.018,3.436-0.254,5.212-0.931c-1.47,1.208-2.584,2.588-3.407,4.067
		c1.592-0.563,3.14-1.424,4.578-2.664c-0.969,1.639-1.542,3.318-1.818,4.994c1.305-1.078,2.469-2.416,3.396-4.078
		c-0.352,1.871-0.314,3.648-0.007,5.314c0.861-1.461,1.496-3.117,1.804-4.998c0.311,1.881,0.942,3.537,1.805,4.998
		c0.311-1.666,0.343-3.443-0.01-5.314c0.93,1.662,2.096,3,3.398,4.078c-0.275-1.676-0.853-3.355-1.821-4.994
		c1.439,1.24,2.991,2.101,4.581,2.664c-0.825-1.479-1.939-2.859-3.408-4.067c1.778,0.677,3.524,0.948,5.212,0.931
		c-1.281-1.104-2.797-2.021-4.588-2.654c1.899,0.025,3.633-0.316,5.213-0.914c-1.58-0.596-3.313-0.939-5.213-0.914
		c1.791-0.633,3.307-1.549,4.588-2.652c-1.688-0.02-3.434,0.256-5.215,0.932c1.472-1.207,2.586-2.592,3.411-4.068
		c-1.59,0.564-3.142,1.422-4.581,2.664c0.969-1.639,1.546-3.32,1.821-4.994c-1.303,1.076-2.469,2.417-3.398,4.081
		c0.353-1.875,0.32-3.653,0.01-5.318c-0.862,1.458-1.494,3.118-1.805,4.999c-0.308-1.881-0.942-3.541-1.804-4.999
		C138.567,34.135,138.53,35.913,138.882,37.788"/>
	<path fill="#FEDA00" d="M138.882,37.788c-0.352-1.875-0.314-3.653-0.007-5.318c-0.917-1.563-2.092-2.897-3.38-4.036
		c-0.26,1.703-0.303,3.483-0.009,5.273C136.791,34.783,137.955,36.124,138.882,37.788"/>
	<path fill="#FEDA00" d="M142.475,47.697c0.352,1.871,0.318,3.648,0.008,5.314c0.918,1.564,2.094,2.896,3.38,4.036
		c0.258-1.706,0.305-3.483,0.01-5.272C144.568,50.697,143.402,49.359,142.475,47.697"/>
	<path fill="#FEDA00" d="M135.486,33.707c-1.396-1.152-2.954-2.003-4.55-2.629c0.337,1.689,0.899,3.377,1.79,4.958
		c1.592,0.562,3.139,1.423,4.578,2.665C136.336,37.063,135.763,35.381,135.486,33.707"/>
	<path fill="#FEDA00" d="M145.872,51.775c1.397,1.149,2.951,2.002,4.547,2.625c-0.336-1.688-0.899-3.375-1.787-4.955
		c-1.59-0.563-3.142-1.424-4.581-2.664C145.02,48.42,145.597,50.1,145.872,51.775"/>
	<path fill="#FEDA00" d="M136.134,40.104c-1.47-1.206-2.584-2.591-3.407-4.067c-1.706-0.602-3.462-0.869-5.174-0.908
		c0.888,1.473,1.995,2.862,3.369,4.045C132.607,39.153,134.356,39.43,136.134,40.104"/>
	<path fill="#FEDA00" d="M145.224,45.377c1.468,1.209,2.584,2.59,3.408,4.07c1.705,0.603,3.459,0.867,5.169,0.907
		c-0.888-1.472-1.991-2.864-3.365-4.047C148.749,46.328,147.002,46.054,145.224,45.377"/>
	<path fill="#FEDA00" d="M135.51,41.826c-1.793-0.633-3.309-1.549-4.588-2.652c-1.809,0.018-3.547,0.37-5.168,0.924
		c1.338,1.074,2.849,2.006,4.539,2.644C131.875,42.145,133.612,41.801,135.51,41.826"/>
	<path fill="#FEDA00" d="M145.848,43.653c1.791,0.634,3.306,1.551,4.588,2.653c1.808-0.018,3.543-0.371,5.169-0.922
		c-1.339-1.076-2.85-2.006-4.543-2.644C149.48,43.338,147.746,43.68,145.848,43.653"/>
	<path fill="#FEDA00" d="M130.293,42.74c-1.69,0.638-3.201,1.568-4.54,2.645c1.622,0.553,3.36,0.904,5.168,0.924
		c1.28-1.104,2.796-2.021,4.589-2.652C133.612,43.68,131.875,43.338,130.293,42.74"/>
	<path fill="#FEDA00" d="M151.062,42.74c1.692-0.637,3.204-1.568,4.543-2.643c-1.626-0.554-3.361-0.906-5.168-0.924
		c-1.283,1.104-2.798,2.02-4.59,2.652C147.747,41.801,149.48,42.145,151.062,42.74"/>
	<path fill="#FEDA00" d="M136.134,45.377c-1.777,0.677-3.526,0.951-5.212,0.931c-1.374,1.183-2.481,2.575-3.369,4.047
		c1.712-0.04,3.468-0.305,5.174-0.907C133.55,47.967,134.664,46.586,136.134,45.377"/>
	<path fill="#FEDA00" d="M145.221,40.104c1.781-0.675,3.527-0.951,5.215-0.931c1.375-1.183,2.478-2.572,3.365-4.045
		c-1.71,0.039-3.464,0.307-5.169,0.908C147.807,37.514,146.692,38.898,145.221,40.104"/>
	<path fill="#FEDA00" d="M138.875,53.012c0.333,1.787,0.98,3.442,1.804,4.953c0.824-1.511,1.47-3.166,1.804-4.953
		c-0.861-1.461-1.493-3.117-1.804-4.998C140.371,49.895,139.736,51.551,138.875,53.012"/>
	<path fill="#FEDA00" d="M138.882,47.697c-0.927,1.662-2.091,3-3.396,4.078c-0.294,1.789-0.251,3.566,0.009,5.272
		c1.288-1.14,2.463-2.472,3.38-4.036C138.567,51.346,138.53,49.568,138.882,47.697"/>
	<path fill="#FEDA00" d="M132.727,49.446c-0.892,1.58-1.453,3.267-1.79,4.954c1.597-0.623,3.152-1.475,4.55-2.624
		c0.275-1.677,0.85-3.356,1.818-4.995C135.865,48.021,134.318,48.883,132.727,49.446"/>
	<path fill="#FEDA00" d="M142.482,32.47c-0.335-1.787-0.979-3.442-1.804-4.953c-0.824,1.511-1.471,3.166-1.804,4.953
		c0.861,1.458,1.496,3.118,1.804,4.999C140.988,35.588,141.621,33.928,142.482,32.47"/>
	<path fill="#FEDA00" d="M142.475,37.788c0.928-1.664,2.094-3.005,3.397-4.081c0.295-1.79,0.248-3.57-0.01-5.273
		c-1.286,1.137-2.462,2.473-3.38,4.036C142.793,34.135,142.826,35.913,142.475,37.788"/>
	<path fill="#FEDA00" d="M148.632,36.037c0.887-1.582,1.452-3.27,1.788-4.959c-1.598,0.625-3.15,1.477-4.549,2.629
		c-0.274,1.674-0.852,3.355-1.82,4.994C145.49,37.459,147.041,36.602,148.632,36.037"/>
</g>
<rect id="_x3C_Slice_x3E_" fill="none" width="167" height="81"/>
</svg>
