<?xml version="1.0" encoding="iso-8859-1"?>
<!-- Generator: Adobe Illustrator 19.0.0, SVG Export Plug-In . SVG Version: 6.00 Build 0)  -->
<svg xmlns="http://www.w3.org/2000/svg" xmlns:xlink="http://www.w3.org/1999/xlink" version="1.1" id="Layer_1" x="0px" y="0px" viewBox="0 0 512.001 512.001" style="enable-background:new 0 0 512.001 512.001;" xml:space="preserve" width="512px" height="512px">
<g>
	<g>
		<path d="M463.788,431.884L322.91,296.838c9.188-9.578,17.882-19.142,25.928-28.523c46.249-53.923,68.731-98.758,68.731-137.066    c0-42.474-16.807-77.083-48.606-100.088C340.785,10.775,301.723,0,256.001,0c-45.722,0-84.784,10.775-112.962,31.162    C111.24,54.167,94.432,88.776,94.432,131.249c0,38.307,22.482,83.142,68.73,137.067c8.052,9.387,16.753,18.95,25.932,28.518    L48.215,431.885c-18.521,17.753-19.144,47.264-1.39,65.786C55.684,506.912,67.614,512,80.417,512    c12.055,0,23.488-4.596,32.193-12.941l143.391-137.457L399.39,499.06c8.705,8.345,20.138,12.941,32.194,12.941    c12.803,0,24.732-5.088,33.592-14.33C482.929,479.15,482.307,449.639,463.788,431.884z M98.494,484.335    c-4.888,4.687-11.308,7.267-18.077,7.267c-7.191,0-13.892-2.858-18.867-8.047c-9.97-10.401-9.62-26.974,0.781-36.945    l141.224-135.381l37.716,36.237L98.494,484.335z M450.451,483.553c-4.975,5.19-11.675,8.048-18.867,8.048    c-6.769,0-13.19-2.58-18.078-7.267L263.068,340.12l-52.337-50.285c-11.489-11.666-22.283-23.372-32.084-34.799    c-42.942-50.069-63.815-90.56-63.815-123.787c0-69.412,52.774-110.851,141.169-110.851c88.396,0,141.17,41.439,141.17,110.851    c0,33.228-20.875,73.718-63.816,123.787c-9.818,11.447-20.645,23.188-32.183,34.9c-1.915,1.943-2.971,4.574-2.932,7.303    c0.039,2.729,1.17,5.329,3.14,7.217L449.671,446.61h-0.001C460.07,456.581,460.421,473.154,450.451,483.553z" fill="#0e5fa4"/>
	</g>
</g>
<g>
	<g>
		<path d="M292.448,269.362l-1.082-1.083c-3.984-3.982-10.44-3.982-14.425,0c-3.983,3.983-3.983,10.441,0,14.425l1.083,1.083    c1.992,1.991,4.602,2.987,7.212,2.987s5.22-0.996,7.212-2.987C296.431,279.804,296.431,273.346,292.448,269.362z" fill="#0e5fa4"/>
	</g>
</g>
<g>
	<g>
		<path d="M344.913,131.248c0-23.99-9.742-40.713-28.956-49.709c-16.675-7.806-38.67-8.883-59.956-8.883s-43.281,1.076-59.956,8.883    c-19.212,8.996-28.954,25.72-28.954,49.709c0,19.091,18.671,51.809,51.224,89.766c9.253,10.787,19.49,21.868,30.426,32.936    l7.516,7.457c2,2.062,4.659,3.099,7.323,3.099c2.558,0,5.119-0.957,7.1-2.877c4.044-3.922,4.143-10.379,0.221-14.423l-0.542-0.559    c8.507-8.859,16.504-17.652,23.836-26.225C326.427,182.729,344.913,150.227,344.913,131.248z M256.152,231.998l-1.924-1.705    c-7.226-7.599-14.082-15.156-20.431-22.558c-36.556-42.624-46.309-68.133-46.309-76.486c0-28.913,16.648-38.193,68.512-38.193    s68.513,9.281,68.513,38.193c0,8.294-9.651,33.617-45.822,75.917C271.756,215.276,264.2,223.599,256.152,231.998z" fill="#0e5fa4"/>
	</g>
</g>
<g>
</g>
<g>
</g>
<g>
</g>
<g>
</g>
<g>
</g>
<g>
</g>
<g>
</g>
<g>
</g>
<g>
</g>
<g>
</g>
<g>
</g>
<g>
</g>
<g>
</g>
<g>
</g>
<g>
</g>
</svg>
