<?xml version="1.0" encoding="utf-8"?>
<!-- Generator: Adobe Illustrator 16.0.3, SVG Export Plug-In . SVG Version: 6.00 Build 0)  -->
<!DOCTYPE svg PUBLIC "-//W3C//DTD SVG 1.1//EN" "http://www.w3.org/Graphics/SVG/1.1/DTD/svg11.dtd">
<svg version="1.1" id="Layer_1" xmlns="http://www.w3.org/2000/svg" xmlns:xlink="http://www.w3.org/1999/xlink" x="0px" y="0px"
	 width="512px" height="583px" viewBox="0 -36.5 512 583" enable-background="new 0 -36.5 512 583" xml:space="preserve">
<path fill="#FFFFFF" d="M182.4,486.4c9.6,9.6,32,25.6,57.6,25.6c86.4,0,105.6-64,108.8-115.2C355.2,323.2,374.4,326.4,384,326.4
	c22.4,0,28.8,12.8,28.8,35.199c-19.2,12.801-32,32-32,54.4c0,35.2,28.8,64,64,64s64-28.8,64-64s-28.8-64-64-64c-3.2,0-3.2,0-6.399,0
	c-6.4-28.8-22.4-57.6-57.601-57.6c-51.2,0-64,44.8-67.2,92.8C310.4,454.4,288,480,240,480c-12.8,0-25.6-6.4-32-12.8
	c-19.2-16-16-73.601-16-73.601c64,0,128-57.6,150.4-153.6l-6.4-3.2c9.6-38.4,16-83.2,16-115.2c0-35.2-9.6-60.8-32-80
	C297.6,22.4,272,16,252.8,16c-6.4-9.6-16-16-28.8-16c-16,0-32,12.8-32,32s12.8,32,32,32c12.8,0,22.4-6.4,25.6-16
	c16,0,32,6.4,48,19.2C313.6,80,320,96,320,121.6c0,28.8-6.4,70.4-16,112l-6.4-3.2C288,265.6,256,345.6,192,345.6h-32
	c-64,0-96-80-105.6-115.2l-6.4,3.2c-9.6-41.6-16-83.2-16-112C32,96,38.4,80,54.4,67.2c12.8-12.8,32-16,48-19.2
	c3.2,9.6,12.8,16,25.6,16c19.2,0,32-12.8,32-32S147.2,0,128,0c-12.8,0-22.4,6.4-28.8,16C80,16,54.4,22.4,32,41.6
	C9.6,60.8,0,86.4,0,121.6c0,32,6.4,76.8,16,118.4l-6.4,3.2C32,336,96,393.6,160,393.6C160,393.6,156.8,464,182.4,486.4L182.4,486.4z
	 M448,448c-19.2,0-32-12.8-32-32s12.8-32,32-32s32,12.8,32,32S464,448,448,448z"/>
</svg>
